<svg width="400" height="400" viewBox="0 0 400 400" fill="none" xmlns="http://www.w3.org/2000/svg">
<path d="M112.214 236.047C112.214 233.557 111.823 231.359 111.042 229.455C110.31 227.502 108.991 225.744 107.087 224.182C105.231 222.619 102.644 221.13 99.3232 219.714C96.0518 218.298 91.9014 216.857 86.8721 215.393C81.5986 213.83 76.8379 212.097 72.5898 210.192C68.3418 208.239 64.7041 206.018 61.6768 203.527C58.6494 201.037 56.3301 198.181 54.7188 194.958C53.1074 191.735 52.3018 188.049 52.3018 183.898C52.3018 179.748 53.1562 175.915 54.8652 172.399C56.5742 168.884 59.0156 165.832 62.1895 163.244C65.4121 160.607 69.2451 158.557 73.6885 157.092C78.1318 155.627 83.0879 154.895 88.5566 154.895C96.5645 154.895 103.352 156.433 108.918 159.509C114.533 162.536 118.806 166.516 121.735 171.447C124.665 176.33 126.13 181.555 126.13 187.121H112.067C112.067 183.117 111.213 179.577 109.504 176.501C107.795 173.376 105.207 170.935 101.74 169.177C98.2734 167.37 93.8789 166.467 88.5566 166.467C83.5273 166.467 79.377 167.224 76.1055 168.737C72.834 170.251 70.3926 172.302 68.7812 174.89C67.2188 177.478 66.4375 180.432 66.4375 183.752C66.4375 185.998 66.9014 188.049 67.8291 189.904C68.8057 191.711 70.2949 193.396 72.2969 194.958C74.3477 196.521 76.9355 197.961 80.0605 199.279C83.2344 200.598 87.0186 201.867 91.4131 203.088C97.4678 204.797 102.692 206.701 107.087 208.801C111.481 210.9 115.095 213.269 117.927 215.905C120.808 218.493 122.932 221.447 124.299 224.768C125.715 228.039 126.423 231.75 126.423 235.9C126.423 240.246 125.544 244.177 123.786 247.692C122.028 251.208 119.514 254.211 116.242 256.701C112.971 259.191 109.04 261.12 104.45 262.487C99.9092 263.806 94.8311 264.465 89.2158 264.465C84.2842 264.465 79.4258 263.781 74.6406 262.414C69.9043 261.047 65.583 258.996 61.6768 256.262C57.8193 253.527 54.7188 250.158 52.375 246.154C50.0801 242.102 48.9326 237.414 48.9326 232.092H62.9951C62.9951 235.754 63.7031 238.903 65.1191 241.54C66.5352 244.128 68.4639 246.276 70.9053 247.985C73.3955 249.694 76.2031 250.964 79.3281 251.794C82.502 252.575 85.7979 252.966 89.2158 252.966C94.1475 252.966 98.3223 252.282 101.74 250.915C105.158 249.548 107.746 247.595 109.504 245.056C111.311 242.517 112.214 239.514 112.214 236.047ZM199.152 250.769L226.252 272.229L216.73 281.018L190.07 259.851L199.152 250.769ZM225.886 206.311V213.049C225.886 221.057 224.885 228.234 222.883 234.582C220.881 240.93 218 246.325 214.24 250.769C210.48 255.212 205.964 258.605 200.69 260.949C195.466 263.293 189.606 264.465 183.112 264.465C176.813 264.465 171.027 263.293 165.754 260.949C160.529 258.605 155.988 255.212 152.131 250.769C148.322 246.325 145.368 240.93 143.269 234.582C141.169 228.234 140.119 221.057 140.119 213.049V206.311C140.119 198.303 141.145 191.149 143.195 184.851C145.295 178.503 148.249 173.107 152.058 168.664C155.866 164.172 160.383 160.754 165.607 158.41C170.881 156.066 176.667 154.895 182.966 154.895C189.46 154.895 195.344 156.066 200.617 158.41C205.891 160.754 210.407 164.172 214.167 168.664C217.927 173.107 220.808 178.503 222.81 184.851C224.86 191.149 225.886 198.303 225.886 206.311ZM211.896 213.049V206.164C211.896 199.816 211.237 194.201 209.919 189.318C208.649 184.436 206.77 180.334 204.279 177.014C201.789 173.693 198.762 171.179 195.197 169.47C191.633 167.761 187.556 166.906 182.966 166.906C178.62 166.906 174.665 167.761 171.101 169.47C167.585 171.179 164.558 173.693 162.019 177.014C159.479 180.334 157.526 184.436 156.159 189.318C154.792 194.201 154.108 199.816 154.108 206.164V213.049C154.108 219.445 154.792 225.109 156.159 230.041C157.526 234.924 159.479 239.05 162.019 242.419C164.606 245.739 167.683 248.254 171.247 249.963C174.812 251.672 178.767 252.526 183.112 252.526C187.702 252.526 191.779 251.672 195.344 249.963C198.908 248.254 201.911 245.739 204.353 242.419C206.843 239.05 208.723 234.924 209.992 230.041C211.262 225.109 211.896 219.445 211.896 213.049ZM312.385 251.501V263H259.064V251.501H312.385ZM261.848 156.359V263H247.712V156.359H261.848Z" fill="#FF2A6A"/>
<line x1="243" y1="288" x2="316" y2="288" stroke="#FF2A6A" stroke-width="10"/>
</svg>
